# xmcd CD database file
#
# Track frame offsets:
#	150
#	18402
#	37285
#	55537
#	85670
#
# Disc length: 1538 seconds
#
# Revision: 1
# Processed by: cddbd v1.5.1PL0 Copyright (c) Steve Scherf et al.
# Submitted via: CDex 1.51
#
DISCID=34060005
DTITLE=Sister Q - Step One
DYEAR=2005
DGENRE=JPop
TTITLE0=Step One
TTITLE1=夏の媚薬
TTITLE2=Step One -Backing Track-
TTITLE3=夏の媚薬 -Backing Track-
TTITLE4=Sister (PV)
EXTD=YEAR: 2005
EXTT0=
EXTT1=
EXTT2=
EXTT3=
EXTT4=
PLAYORDER=
